<svg width="1920" height="540" viewBox="0 0 1920 540" fill="none" xmlns="http://www.w3.org/2000/svg">
<path d="M821.104 14.6057C818.393 37.1916 810.413 64.7466 806.498 64.7466C805.444 64.7466 798.217 61.7352 790.537 58.1214C778.19 52.3995 759.369 46.6778 752.442 46.6778C750.635 46.6778 751.539 49.3882 755.906 58.272C762.531 71.6731 768.554 92.6027 767.801 99.8302L767.349 104.649L753.798 105.703C714.347 108.714 695.827 110.521 695.827 111.274C695.827 111.876 702.452 118.953 710.583 127.235C725.791 142.593 736.933 159.006 736.18 164.727C735.879 166.836 728.2 173.159 712.39 184.151C699.591 193.036 688.9 201.015 688.599 201.769C688.298 202.522 689.954 203.576 692.364 204.177C708.475 207.641 715.401 209.899 721.123 213.212C728.953 217.88 737.084 224.807 741.149 230.528L744.161 234.743L727.296 251.458C713.143 265.611 710.733 268.473 712.54 270.129C713.745 271.183 722.779 274.646 732.717 277.658C742.655 280.669 751.388 283.832 752.141 284.584C752.894 285.337 751.689 293.016 748.829 303.556C746.269 313.344 744.613 321.926 745.064 322.679C745.817 324.034 770.662 322.83 774.727 321.324C778.492 319.969 779.997 323.582 781.051 335.478C781.654 342.405 782.557 348.277 783.159 348.577C784.364 349.331 801.228 342.103 801.228 340.898C801.228 340.447 799.271 337.285 796.862 333.822C789.935 323.733 785.267 313.344 780.901 298.889C778.793 291.36 775.631 281.271 774.125 276.302C772.469 271.334 770.812 264.558 770.511 261.245C768.403 245.285 768.102 239.412 769.608 239.412C770.361 239.412 771.113 241.972 771.113 244.983C771.264 251.759 774.577 269.828 776.835 276.302C777.739 278.712 780.6 287.596 783.159 295.877C789.333 315.301 798.217 332.768 805.896 340.447C809.51 344.06 817.339 349.18 824.868 352.643L837.516 358.515L837.065 364.086L836.613 369.659L803.035 380.801L769.457 392.093L765.09 406.397C762.681 414.378 755.906 438.019 749.883 459.099C743.86 480.028 738.138 498.097 737.234 499C736.331 499.904 733.621 508.035 731.362 517.219C729.103 526.254 726.995 534.988 726.544 536.344C725.791 538.903 731.814 539.054 838.721 539.054C945.779 539.054 951.802 538.903 951.802 536.344C951.802 534.988 944.725 527.158 935.992 519.028C927.258 510.896 920.181 503.368 920.181 502.163C920.181 501.109 925.602 495.538 932.077 489.816C948.64 475.662 948.791 474.759 942.015 457.442C930.571 428.382 906.027 383.511 896.992 375.079C894.131 372.369 893.077 369.808 893.077 365.744C893.077 359.57 894.433 358.065 902.112 355.504C909.942 352.945 917.621 347.072 922.892 339.694C927.107 333.822 928.914 332.768 940.508 329.154C947.586 326.895 953.307 324.485 953.307 323.884C953.307 323.131 950.597 319.216 947.284 315.301C940.81 307.471 939.605 301.9 943.972 300.544C945.327 300.094 950.597 299.34 955.567 298.738C960.534 298.287 965.052 297.533 965.654 297.082C967.01 296.479 959.331 275.098 957.524 274.344C956.921 274.044 956.319 272.689 956.319 271.183C956.319 269.377 958.427 268.021 963.848 266.665C973.183 264.257 995.468 253.566 995.468 251.608C995.468 250.705 992.607 248.597 989.144 246.79C969.871 237.003 954.211 225.71 957.373 223.903C957.975 223.602 963.546 221.795 969.569 219.988C975.592 218.182 985.38 214.417 991.402 211.706C1001.79 207.038 1023.17 194.39 1022.27 193.487C1021.67 193.036 980.862 175.569 976.947 174.213C975.14 173.461 974.689 172.557 975.442 171.202C976.043 169.998 985.982 160.361 997.425 149.821C1008.72 139.13 1018.05 129.945 1018.05 129.343C1018.05 128.138 1008.72 126.482 981.163 122.567C971.225 121.061 962.492 119.555 961.89 118.953C961.137 118.351 968.064 105.1 977.248 89.5913C992.156 64.1444 995.017 58.7237 993.51 58.7237C993.21 58.7237 980.862 63.0904 966.107 68.5109C944.574 76.3408 938.702 77.8466 937.196 76.3408C933.883 73.0282 930.721 48.1835 930.721 25.8986V4.36664L918.525 10.8413C904.221 18.5206 885.098 33.4273 876.214 43.817C872.901 47.8823 869.438 51.195 868.836 51.195C868.082 51.195 862.361 44.2686 855.886 35.6859C844.744 20.9297 825.922 0 823.814 0C823.212 0 822.007 6.62523 821.104 14.6057ZM825.32 391.942C819.749 396.31 791.29 471.446 793.549 475.361C794.302 476.715 800.776 482.889 808.004 489.214C815.382 495.538 821.556 501.41 821.857 502.313C822.158 503.217 820.351 506.53 817.791 509.691C815.382 512.854 813.274 514.509 813.274 513.455C813.274 512.552 814.629 509.842 816.436 507.734L819.598 503.669L805.143 490.117C795.055 480.63 790.688 475.512 790.688 473.102C790.688 468.283 807.853 422.208 818.393 398.569C820.953 392.846 823.061 389.985 824.868 389.985C827.277 390.136 827.277 390.286 825.32 391.942Z" fill="#F5F5F5"/>
<path d="M1077.38 211.557C1035.07 219.236 1011.73 235.948 981.468 280.669C974.843 290.306 974.39 291.511 974.39 300.846C974.39 308.073 972.885 315.15 968.97 327.346C962.345 347.975 962.645 352.794 972.131 368.905C975.896 375.23 978.907 381.253 978.907 382.006C978.907 382.909 976.95 385.77 974.39 388.48C966.41 397.062 966.56 410.312 974.843 419.197C979.661 424.166 990.954 428.833 993.965 426.876C994.718 426.425 993.664 422.961 991.706 419.046C989.598 415.282 987.942 411.066 988.093 409.711C988.093 408.206 988.845 408.657 989.749 411.066C992.308 416.637 1004.2 435.007 1010.08 442.234C1021.67 456.689 1046.67 471.295 1070 477.469C1077.08 479.276 1089.58 480.932 1100.12 481.384C1110.06 481.835 1116.83 482.738 1115.18 483.342C1106.14 486.503 1064.58 480.63 1045.46 473.403L1035.52 469.639L1032.96 473.102C1023.48 485.599 1012.64 514.058 1009.93 533.332L1009.17 539.054H1102.53C1190.77 539.054 1195.88 538.903 1195.13 536.344C1194.68 534.988 1192.27 525.953 1189.86 516.316C1184.59 495.538 1180.37 485.148 1173.6 476.264C1170.89 472.651 1168.63 468.887 1168.63 467.832C1168.78 466.929 1172.54 463.314 1177.21 460.002C1185.65 453.979 1197.24 441.783 1203.56 432.147C1205.67 428.984 1208.98 426.425 1212 425.521C1214.56 424.767 1219.37 421.606 1222.69 418.595C1233.08 408.657 1234.13 395.105 1224.94 387.124C1221.78 384.414 1221.33 383.06 1222.23 378.241C1222.84 375.23 1223.74 372.369 1224.34 371.916C1224.94 371.465 1226.3 367.098 1227.35 362.129C1228.86 354.902 1228.86 349.331 1227.35 333.822C1226.3 323.282 1224.79 314.699 1224.04 314.699C1223.29 314.699 1222.84 310.483 1222.99 305.212C1223.29 296.931 1222.54 294.372 1217.11 283.832C1209.89 269.526 1199.2 253.868 1188.36 242.123C1181.73 234.894 1177.36 232.033 1160.35 223.602C1148.3 217.729 1135.96 212.76 1129.93 211.557C1117.44 208.845 1091.84 208.845 1077.38 211.557Z" fill="#F5F5F5"/>
<path d="M900.609 375.831C900.609 376.284 903.469 380.499 907.083 385.167C910.696 389.836 915.665 397.213 918.375 401.279C925.453 412.572 941.865 447.805 946.684 461.809C951.953 476.715 951.502 477.769 935.691 491.17C929.668 496.29 924.7 501.712 924.7 502.915C924.7 504.271 931.475 511.498 939.757 519.328C948.792 527.61 954.814 534.386 954.814 536.193C954.814 538.903 956.019 539.054 975.894 539.054C991.705 539.054 996.976 538.601 996.976 537.096C996.976 530.771 960.085 398.116 956.621 391.793C956.019 390.588 946.382 387.426 935.24 384.565C924.097 381.855 912.503 378.541 909.34 377.187C903.168 374.777 900.609 374.326 900.609 375.831Z" fill="#F5F5F5"/>
</svg>
